<?xml version="1.0" standalone="no"?>
<!DOCTYPE svg PUBLIC "-//W3C//DTD SVG 20010904//EN"
 "http://www.w3.org/TR/2001/REC-SVG-20010904/DTD/svg10.dtd">
<svg version="1.0" xmlns="http://www.w3.org/2000/svg"
 width="264.000000pt" height="264.000000pt" viewBox="0 0 264.000000 264.000000"
 preserveAspectRatio="xMidYMid meet">

<g transform="translate(0.000000,264.000000) scale(0.100000,-0.100000)"
fill="#000000" stroke="none">
<path d="M0 1320 l0 -1320 1320 0 1320 0 0 1320 0 1320 -1320 0 -1320 0 0
-1320z m866 999 c119 -22 196 -75 246 -172 33 -64 37 -202 8 -279 -24 -66 -87
-134 -149 -165 l-41 -20 26 -39 c15 -22 69 -101 121 -176 l94 -138 -130 0
-130 0 -101 150 -101 150 -89 0 -90 0 0 -150 0 -150 -110 0 -110 0 0 500 0
500 248 0 c137 0 275 -5 308 -11z m848 -26 c-4 -21 -12 -68 -19 -105 l-13 -68
104 0 103 0 6 33 c3 17 12 64 18 102 l13 70 92 3 c107 3 100 13 77 -118 -8
-47 -15 -86 -15 -87 0 -2 25 -3 55 -3 l55 0 0 -90 0 -90 -70 0 c-79 0 -70 13
-93 -127 -8 -46 -12 -85 -9 -88 3 -3 32 -5 64 -5 l58 0 0 -90 0 -90 -79 0 -79
0 -16 -87 c-9 -49 -16 -96 -16 -105 0 -16 -11 -18 -95 -18 -110 0 -104 -9 -80
117 8 43 15 81 15 86 0 4 -47 7 -104 7 l-103 0 -7 -42 c-4 -24 -11 -71 -17
-105 l-11 -63 -94 0 c-52 0 -94 3 -94 8 0 4 7 45 15 92 20 116 23 110 -35 110
l-50 0 0 90 0 89 67 3 68 3 12 65 c6 36 14 84 18 108 l6 42 -60 0 -61 0 0 90
0 89 77 3 77 3 13 70 c6 39 15 85 18 103 l6 32 95 0 95 0 -7 -37z m-424 -1938
l0 -85 -502 0 -503 0 -3 66 c-5 116 -64 104 509 104 l499 0 0 -85z"/>
<path d="M530 1986 l0 -146 133 0 c188 1 243 29 254 133 6 53 -14 96 -59 129
-30 21 -45 23 -180 26 l-148 4 0 -146z"/>
<path d="M1641 1878 c-6 -35 -14 -84 -17 -110 l-7 -48 101 0 c116 0 102 -15
125 127 8 46 12 85 9 88 -3 3 -49 5 -103 5 l-97 0 -11 -62z"/>
</g>
</svg>
